<mxfile host="www.draw.io" modified="2019-12-27T06:06:27.187Z" agent="Mozilla/5.0 (Windows NT 10.0; Win64; x64) AppleWebKit/537.36 (KHTML, like Gecko) Chrome/79.0.3945.88 Safari/537.36" etag="O7ti8_zj48RgDB3Brwri" version="12.4.3" type="github" pages="2">
  <diagram name="Page-1" id="13e1069c-82ec-6db2-03f1-153e76fe0fe0">
    <mxGraphModel dx="946" dy="463" grid="1" gridSize="10" guides="1" tooltips="1" connect="1" arrows="1" fold="1" page="1" pageScale="1" pageWidth="1100" pageHeight="850" background="#ffffff" math="0" shadow="0">
      <root>
        <mxCell id="0"/>
        <mxCell id="1" parent="0"/>
        <mxCell id="7baba1c4bc27f4b0-2" value=":Object" style="shape=umlLifeline;perimeter=lifelinePerimeter;whiteSpace=wrap;html=1;container=1;collapsible=0;recursiveResize=0;outlineConnect=0;rounded=1;shadow=0;comic=0;labelBackgroundColor=none;strokeWidth=1;fontFamily=Verdana;fontSize=12;align=center;" parent="1" vertex="1">
          <mxGeometry x="240" y="80" width="100" height="580" as="geometry"/>
        </mxCell>
        <mxCell id="7baba1c4bc27f4b0-10" value="" style="html=1;points=[];perimeter=orthogonalPerimeter;rounded=0;shadow=0;comic=0;labelBackgroundColor=none;strokeWidth=1;fontFamily=Verdana;fontSize=12;align=center;" parent="7baba1c4bc27f4b0-2" vertex="1">
          <mxGeometry x="45" y="100" width="10" height="230" as="geometry"/>
        </mxCell>
        <mxCell id="7baba1c4bc27f4b0-3" value=":Object" style="shape=umlLifeline;perimeter=lifelinePerimeter;whiteSpace=wrap;html=1;container=1;collapsible=0;recursiveResize=0;outlineConnect=0;rounded=1;shadow=0;comic=0;labelBackgroundColor=none;strokeWidth=1;fontFamily=Verdana;fontSize=12;align=center;" parent="1" vertex="1">
          <mxGeometry x="400" y="80" width="100" height="580" as="geometry"/>
        </mxCell>
        <mxCell id="7baba1c4bc27f4b0-13" value="" style="html=1;points=[];perimeter=orthogonalPerimeter;rounded=0;shadow=0;comic=0;labelBackgroundColor=none;strokeWidth=1;fontFamily=Verdana;fontSize=12;align=center;" parent="7baba1c4bc27f4b0-3" vertex="1">
          <mxGeometry x="45" y="120" width="10" height="200" as="geometry"/>
        </mxCell>
        <mxCell id="7baba1c4bc27f4b0-4" value=":Object" style="shape=umlLifeline;perimeter=lifelinePerimeter;whiteSpace=wrap;html=1;container=1;collapsible=0;recursiveResize=0;outlineConnect=0;rounded=1;shadow=0;comic=0;labelBackgroundColor=none;strokeWidth=1;fontFamily=Verdana;fontSize=12;align=center;" parent="1" vertex="1">
          <mxGeometry x="540" y="80" width="100" height="580" as="geometry"/>
        </mxCell>
        <mxCell id="7baba1c4bc27f4b0-5" value=":Object" style="shape=umlLifeline;perimeter=lifelinePerimeter;whiteSpace=wrap;html=1;container=1;collapsible=0;recursiveResize=0;outlineConnect=0;rounded=1;shadow=0;comic=0;labelBackgroundColor=none;strokeWidth=1;fontFamily=Verdana;fontSize=12;align=center;" parent="1" vertex="1">
          <mxGeometry x="680" y="80" width="100" height="580" as="geometry"/>
        </mxCell>
        <mxCell id="7baba1c4bc27f4b0-6" value=":Object" style="shape=umlLifeline;perimeter=lifelinePerimeter;whiteSpace=wrap;html=1;container=1;collapsible=0;recursiveResize=0;outlineConnect=0;rounded=1;shadow=0;comic=0;labelBackgroundColor=none;strokeWidth=1;fontFamily=Verdana;fontSize=12;align=center;" parent="1" vertex="1">
          <mxGeometry x="820" y="80" width="100" height="580" as="geometry"/>
        </mxCell>
        <mxCell id="7baba1c4bc27f4b0-7" value=":Object" style="shape=umlLifeline;perimeter=lifelinePerimeter;whiteSpace=wrap;html=1;container=1;collapsible=0;recursiveResize=0;outlineConnect=0;rounded=1;shadow=0;comic=0;labelBackgroundColor=none;strokeWidth=1;fontFamily=Verdana;fontSize=12;align=center;" parent="1" vertex="1">
          <mxGeometry x="960" y="80" width="100" height="580" as="geometry"/>
        </mxCell>
        <mxCell id="7baba1c4bc27f4b0-8" value=":Object" style="shape=umlLifeline;perimeter=lifelinePerimeter;whiteSpace=wrap;html=1;container=1;collapsible=0;recursiveResize=0;outlineConnect=0;rounded=1;shadow=0;comic=0;labelBackgroundColor=none;strokeWidth=1;fontFamily=Verdana;fontSize=12;align=center;" parent="1" vertex="1">
          <mxGeometry x="100" y="80" width="100" height="580" as="geometry"/>
        </mxCell>
        <mxCell id="7baba1c4bc27f4b0-9" value="" style="html=1;points=[];perimeter=orthogonalPerimeter;rounded=0;shadow=0;comic=0;labelBackgroundColor=none;strokeWidth=1;fontFamily=Verdana;fontSize=12;align=center;" parent="7baba1c4bc27f4b0-8" vertex="1">
          <mxGeometry x="45" y="100" width="10" height="440" as="geometry"/>
        </mxCell>
        <mxCell id="7baba1c4bc27f4b0-16" value="" style="html=1;points=[];perimeter=orthogonalPerimeter;rounded=0;shadow=0;comic=0;labelBackgroundColor=none;strokeWidth=1;fontFamily=Verdana;fontSize=12;align=center;" parent="1" vertex="1">
          <mxGeometry x="585" y="220" width="10" height="180" as="geometry"/>
        </mxCell>
        <mxCell id="7baba1c4bc27f4b0-17" value="dispatch" style="html=1;verticalAlign=bottom;endArrow=block;labelBackgroundColor=none;fontFamily=Verdana;fontSize=12;edgeStyle=elbowEdgeStyle;elbow=vertical;" parent="1" source="7baba1c4bc27f4b0-13" target="7baba1c4bc27f4b0-16" edge="1">
          <mxGeometry relative="1" as="geometry">
            <mxPoint x="510" y="220" as="sourcePoint"/>
            <Array as="points">
              <mxPoint x="460" y="220"/>
            </Array>
          </mxGeometry>
        </mxCell>
        <mxCell id="7baba1c4bc27f4b0-19" value="" style="html=1;points=[];perimeter=orthogonalPerimeter;rounded=0;shadow=0;comic=0;labelBackgroundColor=none;strokeWidth=1;fontFamily=Verdana;fontSize=12;align=center;" parent="1" vertex="1">
          <mxGeometry x="725" y="230" width="10" height="40" as="geometry"/>
        </mxCell>
        <mxCell id="7baba1c4bc27f4b0-20" value="dispatch" style="html=1;verticalAlign=bottom;endArrow=block;entryX=0;entryY=0;labelBackgroundColor=none;fontFamily=Verdana;fontSize=12;edgeStyle=elbowEdgeStyle;elbow=vertical;" parent="1" source="7baba1c4bc27f4b0-16" target="7baba1c4bc27f4b0-19" edge="1">
          <mxGeometry relative="1" as="geometry">
            <mxPoint x="650" y="230" as="sourcePoint"/>
          </mxGeometry>
        </mxCell>
        <mxCell id="7baba1c4bc27f4b0-21" value="return" style="html=1;verticalAlign=bottom;endArrow=open;dashed=1;endSize=8;labelBackgroundColor=none;fontFamily=Verdana;fontSize=12;edgeStyle=elbowEdgeStyle;elbow=vertical;" parent="1" source="7baba1c4bc27f4b0-19" target="7baba1c4bc27f4b0-16" edge="1">
          <mxGeometry relative="1" as="geometry">
            <mxPoint x="650" y="306" as="targetPoint"/>
            <Array as="points">
              <mxPoint x="670" y="260"/>
              <mxPoint x="700" y="260"/>
            </Array>
          </mxGeometry>
        </mxCell>
        <mxCell id="7baba1c4bc27f4b0-22" value="" style="html=1;points=[];perimeter=orthogonalPerimeter;rounded=0;shadow=0;comic=0;labelBackgroundColor=none;strokeWidth=1;fontFamily=Verdana;fontSize=12;align=center;" parent="1" vertex="1">
          <mxGeometry x="585" y="440" width="10" height="140" as="geometry"/>
        </mxCell>
        <mxCell id="7baba1c4bc27f4b0-23" value="dispatch" style="html=1;verticalAlign=bottom;endArrow=block;entryX=0;entryY=0;labelBackgroundColor=none;fontFamily=Verdana;fontSize=12;" parent="1" source="7baba1c4bc27f4b0-9" target="7baba1c4bc27f4b0-22" edge="1">
          <mxGeometry relative="1" as="geometry">
            <mxPoint x="510" y="420" as="sourcePoint"/>
          </mxGeometry>
        </mxCell>
        <mxCell id="7baba1c4bc27f4b0-25" value="" style="html=1;points=[];perimeter=orthogonalPerimeter;rounded=0;shadow=0;comic=0;labelBackgroundColor=none;strokeColor=#000000;strokeWidth=1;fillColor=#FFFFFF;fontFamily=Verdana;fontSize=12;fontColor=#000000;align=center;" parent="1" vertex="1">
          <mxGeometry x="1005" y="460" width="10" height="30" as="geometry"/>
        </mxCell>
        <mxCell id="7baba1c4bc27f4b0-26" value="dispatch" style="html=1;verticalAlign=bottom;endArrow=block;entryX=0;entryY=0;labelBackgroundColor=none;fontFamily=Verdana;fontSize=12;" parent="1" source="7baba1c4bc27f4b0-22" target="7baba1c4bc27f4b0-25" edge="1">
          <mxGeometry relative="1" as="geometry">
            <mxPoint x="930" y="340" as="sourcePoint"/>
          </mxGeometry>
        </mxCell>
        <mxCell id="7baba1c4bc27f4b0-27" value="return" style="html=1;verticalAlign=bottom;endArrow=open;dashed=1;endSize=8;exitX=0;exitY=0.95;labelBackgroundColor=none;fontFamily=Verdana;fontSize=12;" parent="1" source="7baba1c4bc27f4b0-25" target="7baba1c4bc27f4b0-22" edge="1">
          <mxGeometry relative="1" as="geometry">
            <mxPoint x="930" y="416" as="targetPoint"/>
          </mxGeometry>
        </mxCell>
        <mxCell id="7baba1c4bc27f4b0-28" value="" style="html=1;points=[];perimeter=orthogonalPerimeter;rounded=0;shadow=0;comic=0;labelBackgroundColor=none;strokeWidth=1;fontFamily=Verdana;fontSize=12;align=center;" parent="1" vertex="1">
          <mxGeometry x="870" y="550" width="10" height="60" as="geometry"/>
        </mxCell>
        <mxCell id="7baba1c4bc27f4b0-29" value="dispatch" style="html=1;verticalAlign=bottom;endArrow=block;entryX=0;entryY=0;labelBackgroundColor=none;fontFamily=Verdana;fontSize=12;edgeStyle=elbowEdgeStyle;elbow=vertical;" parent="1" source="7baba1c4bc27f4b0-37" target="7baba1c4bc27f4b0-28" edge="1">
          <mxGeometry relative="1" as="geometry">
            <mxPoint x="800" y="550" as="sourcePoint"/>
          </mxGeometry>
        </mxCell>
        <mxCell id="7baba1c4bc27f4b0-30" value="return" style="html=1;verticalAlign=bottom;endArrow=open;dashed=1;endSize=8;labelBackgroundColor=none;fontFamily=Verdana;fontSize=12;edgeStyle=elbowEdgeStyle;elbow=vertical;" parent="1" source="7baba1c4bc27f4b0-28" target="7baba1c4bc27f4b0-9" edge="1">
          <mxGeometry relative="1" as="geometry">
            <mxPoint x="800" y="626" as="targetPoint"/>
            <Array as="points">
              <mxPoint x="570" y="600"/>
            </Array>
          </mxGeometry>
        </mxCell>
        <mxCell id="7baba1c4bc27f4b0-11" value="dispatch" style="html=1;verticalAlign=bottom;endArrow=block;entryX=0;entryY=0;labelBackgroundColor=none;fontFamily=Verdana;fontSize=12;edgeStyle=elbowEdgeStyle;elbow=vertical;" parent="1" source="7baba1c4bc27f4b0-9" target="7baba1c4bc27f4b0-10" edge="1">
          <mxGeometry relative="1" as="geometry">
            <mxPoint x="220" y="190" as="sourcePoint"/>
          </mxGeometry>
        </mxCell>
        <mxCell id="7baba1c4bc27f4b0-14" value="dispatch" style="html=1;verticalAlign=bottom;endArrow=block;entryX=0;entryY=0;labelBackgroundColor=none;fontFamily=Verdana;fontSize=12;edgeStyle=elbowEdgeStyle;elbow=vertical;" parent="1" source="7baba1c4bc27f4b0-10" target="7baba1c4bc27f4b0-13" edge="1">
          <mxGeometry relative="1" as="geometry">
            <mxPoint x="370" y="200" as="sourcePoint"/>
          </mxGeometry>
        </mxCell>
        <mxCell id="7baba1c4bc27f4b0-34" value="" style="html=1;points=[];perimeter=orthogonalPerimeter;rounded=0;shadow=0;comic=0;labelBackgroundColor=none;strokeWidth=1;fontFamily=Verdana;fontSize=12;align=center;" parent="1" vertex="1">
          <mxGeometry x="590" y="300" width="10" height="70" as="geometry"/>
        </mxCell>
        <mxCell id="7baba1c4bc27f4b0-35" value="dispatch" style="html=1;verticalAlign=bottom;endArrow=block;labelBackgroundColor=none;fontFamily=Verdana;fontSize=12;elbow=vertical;edgeStyle=orthogonalEdgeStyle;curved=1;entryX=1;entryY=0.286;entryPerimeter=0;exitX=1.038;exitY=0.345;exitPerimeter=0;" parent="1" source="7baba1c4bc27f4b0-16" target="7baba1c4bc27f4b0-34" edge="1">
          <mxGeometry relative="1" as="geometry">
            <mxPoint x="465" y="230" as="sourcePoint"/>
            <mxPoint x="595" y="230" as="targetPoint"/>
            <Array as="points">
              <mxPoint x="650" y="282"/>
              <mxPoint x="650" y="320"/>
            </Array>
          </mxGeometry>
        </mxCell>
        <mxCell id="7baba1c4bc27f4b0-36" value="dispatch" style="html=1;verticalAlign=bottom;endArrow=block;labelBackgroundColor=none;fontFamily=Verdana;fontSize=12;elbow=vertical;edgeStyle=orthogonalEdgeStyle;curved=1;exitX=1.066;exitY=0.713;exitPerimeter=0;" parent="1" source="7baba1c4bc27f4b0-34" edge="1">
          <mxGeometry relative="1" as="geometry">
            <mxPoint x="610.3333333333333" y="350" as="sourcePoint"/>
            <mxPoint x="595" y="389" as="targetPoint"/>
            <Array as="points">
              <mxPoint x="650" y="350"/>
              <mxPoint x="650" y="389"/>
            </Array>
          </mxGeometry>
        </mxCell>
        <mxCell id="7baba1c4bc27f4b0-37" value="" style="html=1;points=[];perimeter=orthogonalPerimeter;rounded=0;shadow=0;comic=0;labelBackgroundColor=none;strokeWidth=1;fontFamily=Verdana;fontSize=12;align=center;" parent="1" vertex="1">
          <mxGeometry x="590" y="520" width="10" height="40" as="geometry"/>
        </mxCell>
        <mxCell id="7baba1c4bc27f4b0-39" value="dispatch" style="html=1;verticalAlign=bottom;endArrow=block;labelBackgroundColor=none;fontFamily=Verdana;fontSize=12;elbow=vertical;edgeStyle=orthogonalEdgeStyle;curved=1;entryX=1;entryY=0.286;entryPerimeter=0;exitX=1.038;exitY=0.345;exitPerimeter=0;" parent="1" edge="1">
          <mxGeometry relative="1" as="geometry">
            <mxPoint x="595.3333333333335" y="501" as="sourcePoint"/>
            <mxPoint x="600.3333333333335" y="539.3333333333334" as="targetPoint"/>
            <Array as="points">
              <mxPoint x="650" y="501"/>
              <mxPoint x="650" y="539"/>
            </Array>
          </mxGeometry>
        </mxCell>
        <mxCell id="7baba1c4bc27f4b0-40" value="Note" style="shape=note;whiteSpace=wrap;html=1;size=14;verticalAlign=top;align=left;spacingTop=-6;rounded=0;shadow=0;comic=0;labelBackgroundColor=none;strokeWidth=1;fontFamily=Verdana;fontSize=12" parent="1" vertex="1">
          <mxGeometry x="100" y="30" width="100" height="35" as="geometry"/>
        </mxCell>
        <mxCell id="7baba1c4bc27f4b0-41" value="Note" style="shape=note;whiteSpace=wrap;html=1;size=14;verticalAlign=top;align=left;spacingTop=-6;rounded=0;shadow=0;comic=0;labelBackgroundColor=none;strokeWidth=1;fontFamily=Verdana;fontSize=12" parent="1" vertex="1">
          <mxGeometry x="240" y="30" width="100" height="35" as="geometry"/>
        </mxCell>
        <mxCell id="7baba1c4bc27f4b0-42" value="Note" style="shape=note;whiteSpace=wrap;html=1;size=14;verticalAlign=top;align=left;spacingTop=-6;rounded=0;shadow=0;comic=0;labelBackgroundColor=none;strokeWidth=1;fontFamily=Verdana;fontSize=12" parent="1" vertex="1">
          <mxGeometry x="400" y="30" width="100" height="35" as="geometry"/>
        </mxCell>
        <mxCell id="7baba1c4bc27f4b0-43" value="Note" style="shape=note;whiteSpace=wrap;html=1;size=14;verticalAlign=top;align=left;spacingTop=-6;rounded=0;shadow=0;comic=0;labelBackgroundColor=none;strokeWidth=1;fontFamily=Verdana;fontSize=12" parent="1" vertex="1">
          <mxGeometry x="540" y="30" width="100" height="35" as="geometry"/>
        </mxCell>
        <mxCell id="7baba1c4bc27f4b0-44" value="Note" style="shape=note;whiteSpace=wrap;html=1;size=14;verticalAlign=top;align=left;spacingTop=-6;rounded=0;shadow=0;comic=0;labelBackgroundColor=none;strokeWidth=1;fontFamily=Verdana;fontSize=12" parent="1" vertex="1">
          <mxGeometry x="680" y="30" width="100" height="35" as="geometry"/>
        </mxCell>
        <mxCell id="7baba1c4bc27f4b0-45" value="Note" style="shape=note;whiteSpace=wrap;html=1;size=14;verticalAlign=top;align=left;spacingTop=-6;rounded=0;shadow=0;comic=0;labelBackgroundColor=none;strokeWidth=1;fontFamily=Verdana;fontSize=12" parent="1" vertex="1">
          <mxGeometry x="820" y="30" width="100" height="35" as="geometry"/>
        </mxCell>
        <mxCell id="7baba1c4bc27f4b0-46" value="Note" style="shape=note;whiteSpace=wrap;html=1;size=14;verticalAlign=top;align=left;spacingTop=-6;rounded=0;shadow=0;comic=0;labelBackgroundColor=none;strokeWidth=1;fontFamily=Verdana;fontSize=12" parent="1" vertex="1">
          <mxGeometry x="960" y="30" width="100" height="35" as="geometry"/>
        </mxCell>
      </root>
    </mxGraphModel>
  </diagram>
  <diagram id="ZHzavFJbKKWSqaBJPnFe" name="Page-2">
    <mxGraphModel dx="1177" dy="715" grid="1" gridSize="10" guides="1" tooltips="1" connect="1" arrows="1" fold="1" page="1" pageScale="1" pageWidth="827" pageHeight="1169" math="0" shadow="0">
      <root>
        <mxCell id="DllraJFMNf70iEvgbZT--0"/>
        <mxCell id="DllraJFMNf70iEvgbZT--1" parent="DllraJFMNf70iEvgbZT--0"/>
        <mxCell id="DllraJFMNf70iEvgbZT--2" value="BaseGLMapListener" style="shape=umlLifeline;perimeter=lifelinePerimeter;whiteSpace=wrap;html=1;container=1;collapsible=0;recursiveResize=0;outlineConnect=0;" parent="DllraJFMNf70iEvgbZT--1" vertex="1">
          <mxGeometry x="90" y="50" width="120" height="300" as="geometry"/>
        </mxCell>
        <mxCell id="DllraJFMNf70iEvgbZT--3" value="" style="html=1;points=[];perimeter=orthogonalPerimeter;" parent="DllraJFMNf70iEvgbZT--2" vertex="1">
          <mxGeometry x="55" y="90" width="10" height="120" as="geometry"/>
        </mxCell>
        <mxCell id="DllraJFMNf70iEvgbZT--4" value="" style="html=1;verticalAlign=bottom;startArrow=oval;endArrow=block;startSize=8;" parent="DllraJFMNf70iEvgbZT--2" target="DllraJFMNf70iEvgbZT--3" edge="1">
          <mxGeometry y="10" relative="1" as="geometry">
            <mxPoint x="-10" y="90" as="sourcePoint"/>
            <mxPoint as="offset"/>
          </mxGeometry>
        </mxCell>
        <mxCell id="EixzIUIeE48TNXtItAww-0" value="" style="html=1;points=[];perimeter=orthogonalPerimeter;" vertex="1" parent="DllraJFMNf70iEvgbZT--2">
          <mxGeometry x="60" y="140" width="10" height="40" as="geometry"/>
        </mxCell>
        <mxCell id="EixzIUIeE48TNXtItAww-1" value="handleLongClickEvent" style="edgeStyle=orthogonalEdgeStyle;html=1;align=left;spacingLeft=2;endArrow=block;rounded=0;entryX=1;entryY=0;" edge="1" target="EixzIUIeE48TNXtItAww-0" parent="DllraJFMNf70iEvgbZT--2">
          <mxGeometry x="-0.5441" y="10" relative="1" as="geometry">
            <mxPoint x="65" y="120" as="sourcePoint"/>
            <Array as="points">
              <mxPoint x="90" y="120"/>
            </Array>
            <mxPoint as="offset"/>
          </mxGeometry>
        </mxCell>
        <mxCell id="DllraJFMNf70iEvgbZT--5" value="onMapUIEvent" style="text;html=1;align=center;verticalAlign=middle;resizable=0;points=[];;autosize=1;" parent="DllraJFMNf70iEvgbZT--1" vertex="1">
          <mxGeometry x="60" y="110" width="90" height="20" as="geometry"/>
        </mxCell>
        <mxCell id="DllraJFMNf70iEvgbZT--9" value="&lt;span style=&quot;white-space: nowrap&quot;&gt;DecoratorManager&lt;/span&gt;" style="shape=umlLifeline;perimeter=lifelinePerimeter;whiteSpace=wrap;html=1;container=1;collapsible=0;recursiveResize=0;outlineConnect=0;" parent="DllraJFMNf70iEvgbZT--1" vertex="1">
          <mxGeometry x="250" y="50" width="110" height="1630" as="geometry"/>
        </mxCell>
        <mxCell id="DllraJFMNf70iEvgbZT--10" value="" style="html=1;points=[];perimeter=orthogonalPerimeter;" parent="DllraJFMNf70iEvgbZT--9" vertex="1">
          <mxGeometry x="50" y="150" width="10" height="80" as="geometry"/>
        </mxCell>
        <mxCell id="EixzIUIeE48TNXtItAww-118" value="" style="html=1;points=[];perimeter=orthogonalPerimeter;" vertex="1" parent="DllraJFMNf70iEvgbZT--9">
          <mxGeometry x="50" y="1340" width="10" height="50" as="geometry"/>
        </mxCell>
        <mxCell id="EixzIUIeE48TNXtItAww-119" value="addDecorator" style="html=1;verticalAlign=bottom;startArrow=oval;endArrow=block;startSize=8;" edge="1" target="EixzIUIeE48TNXtItAww-118" parent="DllraJFMNf70iEvgbZT--9">
          <mxGeometry y="10" relative="1" as="geometry">
            <mxPoint x="-10" y="1340" as="sourcePoint"/>
            <mxPoint as="offset"/>
          </mxGeometry>
        </mxCell>
        <mxCell id="DllraJFMNf70iEvgbZT--11" value="addDecorator" style="html=1;verticalAlign=bottom;startArrow=oval;endArrow=block;startSize=8;exitX=1.048;exitY=0.278;exitDx=0;exitDy=0;exitPerimeter=0;" parent="DllraJFMNf70iEvgbZT--1" target="DllraJFMNf70iEvgbZT--10" edge="1" source="EixzIUIeE48TNXtItAww-0">
          <mxGeometry relative="1" as="geometry">
            <mxPoint x="170" y="200" as="sourcePoint"/>
            <mxPoint x="300" y="201" as="targetPoint"/>
          </mxGeometry>
        </mxCell>
        <mxCell id="DllraJFMNf70iEvgbZT--18" value="RgcDecorator" style="shape=umlLifeline;perimeter=lifelinePerimeter;whiteSpace=wrap;html=1;container=1;collapsible=0;recursiveResize=0;outlineConnect=0;" parent="DllraJFMNf70iEvgbZT--1" vertex="1">
          <mxGeometry x="515" y="50" width="155" height="990" as="geometry"/>
        </mxCell>
        <mxCell id="DllraJFMNf70iEvgbZT--22" value="" style="html=1;points=[];perimeter=orthogonalPerimeter;" parent="DllraJFMNf70iEvgbZT--18" vertex="1">
          <mxGeometry x="72.5" y="180" width="10" height="30" as="geometry"/>
        </mxCell>
        <mxCell id="EixzIUIeE48TNXtItAww-36" value="AbstractDecorator" style="shape=umlLifeline;perimeter=lifelinePerimeter;whiteSpace=wrap;html=1;container=1;collapsible=0;recursiveResize=0;outlineConnect=0;size=40;" vertex="1" parent="DllraJFMNf70iEvgbZT--18">
          <mxGeometry x="130" y="500" width="120" height="290" as="geometry"/>
        </mxCell>
        <mxCell id="EixzIUIeE48TNXtItAww-34" value="" style="html=1;points=[];perimeter=orthogonalPerimeter;" vertex="1" parent="EixzIUIeE48TNXtItAww-36">
          <mxGeometry x="52.5" y="108.16" width="15" height="105" as="geometry"/>
        </mxCell>
        <mxCell id="EixzIUIeE48TNXtItAww-72" value="" style="html=1;points=[];perimeter=orthogonalPerimeter;" vertex="1" parent="EixzIUIeE48TNXtItAww-36">
          <mxGeometry x="60" y="140" width="10" height="40" as="geometry"/>
        </mxCell>
        <mxCell id="EixzIUIeE48TNXtItAww-73" value="update" style="edgeStyle=orthogonalEdgeStyle;html=1;align=left;spacingLeft=2;endArrow=block;rounded=0;entryX=1;entryY=0;" edge="1" target="EixzIUIeE48TNXtItAww-72" parent="EixzIUIeE48TNXtItAww-36" source="EixzIUIeE48TNXtItAww-34">
          <mxGeometry relative="1" as="geometry">
            <mxPoint x="50" y="120" as="sourcePoint"/>
            <Array as="points">
              <mxPoint x="85" y="120"/>
              <mxPoint x="85" y="140"/>
            </Array>
          </mxGeometry>
        </mxCell>
        <mxCell id="EixzIUIeE48TNXtItAww-41" value="" style="html=1;points=[];perimeter=orthogonalPerimeter;" vertex="1" parent="DllraJFMNf70iEvgbZT--18">
          <mxGeometry x="72.5" y="660" width="17.5" height="140" as="geometry"/>
        </mxCell>
        <mxCell id="EixzIUIeE48TNXtItAww-42" value="show" style="html=1;verticalAlign=bottom;startArrow=oval;endArrow=block;startSize=8;" edge="1" target="EixzIUIeE48TNXtItAww-41" parent="DllraJFMNf70iEvgbZT--18" source="EixzIUIeE48TNXtItAww-72">
          <mxGeometry relative="1" as="geometry">
            <mxPoint x="147.5" y="691" as="sourcePoint"/>
            <Array as="points">
              <mxPoint x="135" y="660"/>
            </Array>
          </mxGeometry>
        </mxCell>
        <mxCell id="DllraJFMNf70iEvgbZT--19" value="AbstractDecorator" style="shape=umlLifeline;perimeter=lifelinePerimeter;whiteSpace=wrap;html=1;container=1;collapsible=0;recursiveResize=0;outlineConnect=0;" parent="DllraJFMNf70iEvgbZT--1" vertex="1">
          <mxGeometry x="380" y="50" width="100" height="300" as="geometry"/>
        </mxCell>
        <mxCell id="DllraJFMNf70iEvgbZT--20" value="" style="html=1;points=[];perimeter=orthogonalPerimeter;" parent="DllraJFMNf70iEvgbZT--19" vertex="1">
          <mxGeometry x="45" y="170" width="10" height="80" as="geometry"/>
        </mxCell>
        <mxCell id="DllraJFMNf70iEvgbZT--21" value="execute" style="html=1;verticalAlign=bottom;startArrow=oval;endArrow=block;startSize=8;" parent="DllraJFMNf70iEvgbZT--1" target="DllraJFMNf70iEvgbZT--20" edge="1">
          <mxGeometry x="0.0435" relative="1" as="geometry">
            <mxPoint x="310" y="220" as="sourcePoint"/>
            <mxPoint as="offset"/>
          </mxGeometry>
        </mxCell>
        <mxCell id="DllraJFMNf70iEvgbZT--23" value="createDecoratorTask" style="html=1;verticalAlign=bottom;endArrow=block;entryX=0;entryY=0;exitX=0.9;exitY=0.117;exitDx=0;exitDy=0;exitPerimeter=0;" parent="DllraJFMNf70iEvgbZT--1" source="DllraJFMNf70iEvgbZT--20" target="DllraJFMNf70iEvgbZT--22" edge="1">
          <mxGeometry relative="1" as="geometry">
            <mxPoint x="440" y="230" as="sourcePoint"/>
            <Array as="points">
              <mxPoint x="490" y="230"/>
            </Array>
          </mxGeometry>
        </mxCell>
        <mxCell id="DllraJFMNf70iEvgbZT--32" value="RgcDecoratorTask" style="shape=umlLifeline;perimeter=lifelinePerimeter;whiteSpace=wrap;html=1;container=1;collapsible=0;recursiveResize=0;outlineConnect=0;" parent="DllraJFMNf70iEvgbZT--1" vertex="1">
          <mxGeometry x="705" y="50" width="100" height="640" as="geometry"/>
        </mxCell>
        <mxCell id="EixzIUIeE48TNXtItAww-24" value="" style="html=1;points=[];perimeter=orthogonalPerimeter;" vertex="1" parent="DllraJFMNf70iEvgbZT--32">
          <mxGeometry x="45" y="290.17" width="10" height="189.83" as="geometry"/>
        </mxCell>
        <mxCell id="EixzIUIeE48TNXtItAww-25" value="&lt;span style=&quot;font-size: 12px ; text-align: center ; background-color: rgb(248 , 249 , 250)&quot;&gt;doInBackground&lt;/span&gt;" style="edgeStyle=orthogonalEdgeStyle;html=1;align=left;spacingLeft=2;endArrow=block;rounded=0;entryX=1;entryY=0;" edge="1" target="EixzIUIeE48TNXtItAww-24" parent="DllraJFMNf70iEvgbZT--32">
          <mxGeometry relative="1" as="geometry">
            <mxPoint x="50" y="270.17" as="sourcePoint"/>
            <Array as="points">
              <mxPoint x="75" y="270.17"/>
            </Array>
          </mxGeometry>
        </mxCell>
        <mxCell id="DllraJFMNf70iEvgbZT--38" value="return" style="html=1;verticalAlign=bottom;endArrow=open;dashed=1;endSize=8;exitX=0.038;exitY=0.637;exitDx=0;exitDy=0;exitPerimeter=0;" parent="DllraJFMNf70iEvgbZT--1" source="DllraJFMNf70iEvgbZT--22" target="DllraJFMNf70iEvgbZT--20" edge="1">
          <mxGeometry relative="1" as="geometry">
            <mxPoint x="550" y="250" as="sourcePoint"/>
            <mxPoint x="460" y="310" as="targetPoint"/>
          </mxGeometry>
        </mxCell>
        <mxCell id="DllraJFMNf70iEvgbZT--40" value="execute" style="html=1;verticalAlign=bottom;startArrow=oval;endArrow=block;startSize=8;" parent="DllraJFMNf70iEvgbZT--1" edge="1" target="DllraJFMNf70iEvgbZT--32">
          <mxGeometry relative="1" as="geometry">
            <mxPoint x="436" y="276" as="sourcePoint"/>
            <mxPoint x="699.5" y="277" as="targetPoint"/>
            <Array as="points">
              <mxPoint x="620" y="277"/>
            </Array>
          </mxGeometry>
        </mxCell>
        <mxCell id="DllraJFMNf70iEvgbZT--54" value="DenaliRgcSearchDelegate" style="shape=umlLifeline;perimeter=lifelinePerimeter;whiteSpace=wrap;html=1;container=1;collapsible=0;recursiveResize=0;outlineConnect=0;" parent="DllraJFMNf70iEvgbZT--1" vertex="1">
          <mxGeometry x="855" y="50" width="140" height="430" as="geometry"/>
        </mxCell>
        <mxCell id="DllraJFMNf70iEvgbZT--55" value="AutoSdkEntityService" style="shape=umlLifeline;perimeter=lifelinePerimeter;whiteSpace=wrap;html=1;container=1;collapsible=0;recursiveResize=0;outlineConnect=0;" parent="DllraJFMNf70iEvgbZT--1" vertex="1">
          <mxGeometry x="1025" y="50" width="130" height="350" as="geometry"/>
        </mxCell>
        <mxCell id="DllraJFMNf70iEvgbZT--58" value="" style="html=1;points=[];perimeter=orthogonalPerimeter;" parent="DllraJFMNf70iEvgbZT--55" vertex="1">
          <mxGeometry x="60" y="337" width="10" height="20" as="geometry"/>
        </mxCell>
        <mxCell id="DllraJFMNf70iEvgbZT--56" value="" style="html=1;points=[];perimeter=orthogonalPerimeter;" parent="DllraJFMNf70iEvgbZT--1" vertex="1">
          <mxGeometry x="920" y="367" width="10" height="30" as="geometry"/>
        </mxCell>
        <mxCell id="DllraJFMNf70iEvgbZT--57" value="search" style="html=1;verticalAlign=bottom;startArrow=oval;endArrow=block;startSize=8;exitX=0.978;exitY=0.156;exitDx=0;exitDy=0;exitPerimeter=0;" parent="DllraJFMNf70iEvgbZT--1" target="DllraJFMNf70iEvgbZT--56" edge="1" source="EixzIUIeE48TNXtItAww-24">
          <mxGeometry relative="1" as="geometry">
            <mxPoint x="785" y="368" as="sourcePoint"/>
          </mxGeometry>
        </mxCell>
        <mxCell id="DllraJFMNf70iEvgbZT--59" value="search" style="html=1;verticalAlign=bottom;startArrow=oval;endArrow=block;startSize=8;" parent="DllraJFMNf70iEvgbZT--1" target="DllraJFMNf70iEvgbZT--58" edge="1">
          <mxGeometry relative="1" as="geometry">
            <mxPoint x="930" y="387" as="sourcePoint"/>
          </mxGeometry>
        </mxCell>
        <mxCell id="EixzIUIeE48TNXtItAww-2" value="AutoSdkEntityServiceWrapperEntityV4Binding" style="shape=umlLifeline;perimeter=lifelinePerimeter;whiteSpace=wrap;html=1;container=1;collapsible=0;recursiveResize=0;outlineConnect=0;" vertex="1" parent="DllraJFMNf70iEvgbZT--1">
          <mxGeometry x="1165" y="50" width="240" height="550" as="geometry"/>
        </mxCell>
        <mxCell id="EixzIUIeE48TNXtItAww-11" value="" style="html=1;points=[];perimeter=orthogonalPerimeter;" vertex="1" parent="EixzIUIeE48TNXtItAww-2">
          <mxGeometry x="120" y="370" width="10" height="20.04" as="geometry"/>
        </mxCell>
        <mxCell id="EixzIUIeE48TNXtItAww-3" value="" style="html=1;points=[];perimeter=orthogonalPerimeter;" vertex="1" parent="DllraJFMNf70iEvgbZT--1">
          <mxGeometry x="1280" y="390" width="10" height="170" as="geometry"/>
        </mxCell>
        <mxCell id="EixzIUIeE48TNXtItAww-4" value="search" style="html=1;verticalAlign=bottom;startArrow=oval;endArrow=block;startSize=8;" edge="1" target="EixzIUIeE48TNXtItAww-3" parent="DllraJFMNf70iEvgbZT--1">
          <mxGeometry relative="1" as="geometry">
            <mxPoint x="1095" y="397" as="sourcePoint"/>
          </mxGeometry>
        </mxCell>
        <mxCell id="EixzIUIeE48TNXtItAww-13" value="" style="html=1;points=[];perimeter=orthogonalPerimeter;" vertex="1" parent="DllraJFMNf70iEvgbZT--1">
          <mxGeometry x="1285" y="410" width="10" height="130" as="geometry"/>
        </mxCell>
        <mxCell id="EixzIUIeE48TNXtItAww-12" value="rgcEntitySearch" style="edgeStyle=orthogonalEdgeStyle;html=1;align=left;spacingLeft=2;endArrow=block;rounded=0;exitX=1.004;exitY=0.055;exitDx=0;exitDy=0;exitPerimeter=0;" edge="1" parent="DllraJFMNf70iEvgbZT--1" source="EixzIUIeE48TNXtItAww-3">
          <mxGeometry x="-0.8481" y="-25" relative="1" as="geometry">
            <mxPoint x="1290" y="380.04" as="sourcePoint"/>
            <Array as="points">
              <mxPoint x="1290" y="394"/>
              <mxPoint x="1315" y="394"/>
              <mxPoint x="1315" y="410"/>
              <mxPoint x="1295" y="410"/>
            </Array>
            <mxPoint x="1295" y="410" as="targetPoint"/>
            <mxPoint x="5" y="-49" as="offset"/>
          </mxGeometry>
        </mxCell>
        <mxCell id="EixzIUIeE48TNXtItAww-14" value="" style="html=1;points=[];perimeter=orthogonalPerimeter;" vertex="1" parent="DllraJFMNf70iEvgbZT--1">
          <mxGeometry x="1290" y="445" width="10" height="85" as="geometry"/>
        </mxCell>
        <mxCell id="EixzIUIeE48TNXtItAww-15" value="&lt;pre style=&quot;background-color: rgb(38 , 50 , 56)&quot;&gt;&lt;font color=&quot;#c3cee3&quot; face=&quot;consolas&quot;&gt;&lt;span style=&quot;font-size: 12.8pt&quot;&gt;&lt;br&gt;&lt;/span&gt;&lt;/font&gt;&lt;/pre&gt;" style="edgeStyle=orthogonalEdgeStyle;html=1;align=left;spacingLeft=2;endArrow=block;rounded=0;entryX=1;entryY=0;" edge="1" target="EixzIUIeE48TNXtItAww-14" parent="DllraJFMNf70iEvgbZT--1">
          <mxGeometry x="0.386" y="77" relative="1" as="geometry">
            <mxPoint x="1295" y="425" as="sourcePoint"/>
            <Array as="points">
              <mxPoint x="1320" y="425"/>
            </Array>
            <mxPoint x="55" y="-22" as="offset"/>
          </mxGeometry>
        </mxCell>
        <mxCell id="EixzIUIeE48TNXtItAww-16" value="getEntityRgcResponse" style="text;html=1;strokeColor=none;fillColor=none;align=center;verticalAlign=middle;whiteSpace=wrap;rounded=0;" vertex="1" parent="DllraJFMNf70iEvgbZT--1">
          <mxGeometry x="1335" y="410" width="40" height="20" as="geometry"/>
        </mxCell>
        <mxCell id="EixzIUIeE48TNXtItAww-17" value="" style="html=1;points=[];perimeter=orthogonalPerimeter;" vertex="1" parent="DllraJFMNf70iEvgbZT--1">
          <mxGeometry x="1295" y="477.58" width="10" height="40" as="geometry"/>
        </mxCell>
        <mxCell id="EixzIUIeE48TNXtItAww-18" value="parallelSearch" style="edgeStyle=orthogonalEdgeStyle;html=1;align=left;spacingLeft=2;endArrow=block;rounded=0;entryX=1;entryY=0;" edge="1" target="EixzIUIeE48TNXtItAww-17" parent="DllraJFMNf70iEvgbZT--1">
          <mxGeometry relative="1" as="geometry">
            <mxPoint x="1300" y="457.58" as="sourcePoint"/>
            <Array as="points">
              <mxPoint x="1325" y="457.58"/>
            </Array>
          </mxGeometry>
        </mxCell>
        <mxCell id="EixzIUIeE48TNXtItAww-19" value="return" style="html=1;verticalAlign=bottom;endArrow=open;dashed=1;endSize=8;exitX=0.071;exitY=0.821;exitDx=0;exitDy=0;exitPerimeter=0;" edge="1" parent="DllraJFMNf70iEvgbZT--1" source="EixzIUIeE48TNXtItAww-17" target="EixzIUIeE48TNXtItAww-24">
          <mxGeometry relative="1" as="geometry">
            <mxPoint x="1305" y="510" as="sourcePoint"/>
            <mxPoint x="1225" y="510" as="targetPoint"/>
          </mxGeometry>
        </mxCell>
        <mxCell id="EixzIUIeE48TNXtItAww-26" value="" style="html=1;points=[];perimeter=orthogonalPerimeter;" vertex="1" parent="DllraJFMNf70iEvgbZT--1">
          <mxGeometry x="750" y="630.6600000000001" width="10" height="40" as="geometry"/>
        </mxCell>
        <mxCell id="EixzIUIeE48TNXtItAww-27" value="onPostExecute" style="edgeStyle=orthogonalEdgeStyle;html=1;align=left;spacingLeft=2;endArrow=block;rounded=0;entryX=1;entryY=0;" edge="1" target="EixzIUIeE48TNXtItAww-26" parent="DllraJFMNf70iEvgbZT--1">
          <mxGeometry relative="1" as="geometry">
            <mxPoint x="755" y="610.6600000000001" as="sourcePoint"/>
            <Array as="points">
              <mxPoint x="780" y="610.6600000000001"/>
            </Array>
          </mxGeometry>
        </mxCell>
        <mxCell id="EixzIUIeE48TNXtItAww-35" value="onPostExecute" style="html=1;verticalAlign=bottom;startArrow=oval;endArrow=block;startSize=8;" edge="1" target="EixzIUIeE48TNXtItAww-34" parent="DllraJFMNf70iEvgbZT--1" source="EixzIUIeE48TNXtItAww-26">
          <mxGeometry x="1" y="-18" relative="1" as="geometry">
            <mxPoint x="755" y="660.33" as="sourcePoint"/>
            <mxPoint as="offset"/>
          </mxGeometry>
        </mxCell>
        <mxCell id="EixzIUIeE48TNXtItAww-80" value="RainierAnnotation&lt;br&gt;Factory" style="shape=umlLifeline;perimeter=lifelinePerimeter;whiteSpace=wrap;html=1;container=1;collapsible=0;recursiveResize=0;outlineConnect=0;" vertex="1" parent="DllraJFMNf70iEvgbZT--1">
          <mxGeometry x="820" y="550" width="970" height="730" as="geometry"/>
        </mxCell>
        <mxCell id="EixzIUIeE48TNXtItAww-81" value="" style="html=1;points=[];perimeter=orthogonalPerimeter;" vertex="1" parent="EixzIUIeE48TNXtItAww-80">
          <mxGeometry x="45" y="240" width="10" height="10" as="geometry"/>
        </mxCell>
        <mxCell id="EixzIUIeE48TNXtItAww-147" value="route plan" style="shape=umlFrame;whiteSpace=wrap;html=1;" vertex="1" parent="EixzIUIeE48TNXtItAww-80">
          <mxGeometry x="6" y="409" width="964" height="321" as="geometry"/>
        </mxCell>
        <mxCell id="EixzIUIeE48TNXtItAww-149" value="" style="edgeStyle=orthogonalEdgeStyle;rounded=0;orthogonalLoop=1;jettySize=auto;html=1;" edge="1" parent="EixzIUIeE48TNXtItAww-80" source="EixzIUIeE48TNXtItAww-98" target="EixzIUIeE48TNXtItAww-148">
          <mxGeometry relative="1" as="geometry"/>
        </mxCell>
        <mxCell id="EixzIUIeE48TNXtItAww-98" value="calculateRoute" style="text;html=1;strokeColor=none;fillColor=none;align=center;verticalAlign=middle;whiteSpace=wrap;rounded=0;" vertex="1" parent="EixzIUIeE48TNXtItAww-80">
          <mxGeometry x="350" y="400" width="40" height="40" as="geometry"/>
        </mxCell>
        <mxCell id="EixzIUIeE48TNXtItAww-148" value="calculateRoute" style="text;html=1;strokeColor=none;fillColor=none;align=center;verticalAlign=middle;whiteSpace=wrap;rounded=0;" vertex="1" parent="EixzIUIeE48TNXtItAww-80">
          <mxGeometry x="350" y="280" width="40" height="40" as="geometry"/>
        </mxCell>
        <mxCell id="EixzIUIeE48TNXtItAww-82" value="getGLMapAddressAnnotation" style="html=1;verticalAlign=bottom;startArrow=oval;endArrow=block;startSize=8;" edge="1" target="EixzIUIeE48TNXtItAww-81" parent="DllraJFMNf70iEvgbZT--1" source="EixzIUIeE48TNXtItAww-41">
          <mxGeometry relative="1" as="geometry">
            <mxPoint x="805" y="780" as="sourcePoint"/>
          </mxGeometry>
        </mxCell>
        <mxCell id="EixzIUIeE48TNXtItAww-83" value="BaseGLViewFragment" style="shape=umlLifeline;perimeter=lifelinePerimeter;whiteSpace=wrap;html=1;container=1;collapsible=0;recursiveResize=0;outlineConnect=0;" vertex="1" parent="DllraJFMNf70iEvgbZT--1">
          <mxGeometry x="960" y="550" width="220" height="1100" as="geometry"/>
        </mxCell>
        <mxCell id="EixzIUIeE48TNXtItAww-93" value="NavigationUtil" style="shape=umlLifeline;perimeter=lifelinePerimeter;whiteSpace=wrap;html=1;container=1;collapsible=0;recursiveResize=0;outlineConnect=0;" vertex="1" parent="EixzIUIeE48TNXtItAww-83">
          <mxGeometry x="120" y="150" width="100" height="950" as="geometry"/>
        </mxCell>
        <mxCell id="EixzIUIeE48TNXtItAww-94" value="" style="html=1;points=[];perimeter=orthogonalPerimeter;" vertex="1" parent="EixzIUIeE48TNXtItAww-93">
          <mxGeometry x="50" y="270" width="10" height="80" as="geometry"/>
        </mxCell>
        <mxCell id="EixzIUIeE48TNXtItAww-96" value="" style="html=1;points=[];perimeter=orthogonalPerimeter;" vertex="1" parent="EixzIUIeE48TNXtItAww-93">
          <mxGeometry x="54.819999999999936" y="300" width="10" height="40" as="geometry"/>
        </mxCell>
        <mxCell id="EixzIUIeE48TNXtItAww-97" value="&lt;pre style=&quot;background-color: #263238 ; color: #c3cee3 ; font-family: &amp;#34;consolas&amp;#34; ; font-size: 12.8pt&quot;&gt;&lt;br&gt;&lt;/pre&gt;" style="edgeStyle=orthogonalEdgeStyle;html=1;align=left;spacingLeft=2;endArrow=block;rounded=0;entryX=1;entryY=0;" edge="1" target="EixzIUIeE48TNXtItAww-96" parent="EixzIUIeE48TNXtItAww-93">
          <mxGeometry relative="1" as="geometry">
            <mxPoint x="59.819999999999936" y="280" as="sourcePoint"/>
            <Array as="points">
              <mxPoint x="84.81999999999994" y="280"/>
            </Array>
          </mxGeometry>
        </mxCell>
        <mxCell id="EixzIUIeE48TNXtItAww-102" value="" style="html=1;points=[];perimeter=orthogonalPerimeter;" vertex="1" parent="EixzIUIeE48TNXtItAww-93">
          <mxGeometry x="44.82" y="370" width="10" height="30" as="geometry"/>
        </mxCell>
        <mxCell id="EixzIUIeE48TNXtItAww-105" value="" style="html=1;points=[];perimeter=orthogonalPerimeter;" vertex="1" parent="EixzIUIeE48TNXtItAww-93">
          <mxGeometry x="45" y="478" width="10" height="40" as="geometry"/>
        </mxCell>
        <mxCell id="EixzIUIeE48TNXtItAww-106" value="runnable.run" style="edgeStyle=orthogonalEdgeStyle;html=1;align=left;spacingLeft=2;endArrow=block;rounded=0;entryX=1;entryY=0;" edge="1" target="EixzIUIeE48TNXtItAww-105" parent="EixzIUIeE48TNXtItAww-93">
          <mxGeometry relative="1" as="geometry">
            <mxPoint x="50" y="458" as="sourcePoint"/>
            <Array as="points">
              <mxPoint x="75" y="458"/>
            </Array>
          </mxGeometry>
        </mxCell>
        <mxCell id="EixzIUIeE48TNXtItAww-84" value="" style="html=1;points=[];perimeter=orthogonalPerimeter;" vertex="1" parent="EixzIUIeE48TNXtItAww-83">
          <mxGeometry x="105" y="270" width="10" height="10" as="geometry"/>
        </mxCell>
        <mxCell id="EixzIUIeE48TNXtItAww-85" value="addAnnotation" style="html=1;verticalAlign=bottom;startArrow=oval;endArrow=block;startSize=8;" edge="1" target="EixzIUIeE48TNXtItAww-84" parent="DllraJFMNf70iEvgbZT--1" source="EixzIUIeE48TNXtItAww-41">
          <mxGeometry relative="1" as="geometry">
            <mxPoint x="955" y="820" as="sourcePoint"/>
          </mxGeometry>
        </mxCell>
        <mxCell id="EixzIUIeE48TNXtItAww-86" value="RainierGLMapAddress&lt;br&gt;Annotation" style="shape=umlLifeline;perimeter=lifelinePerimeter;whiteSpace=wrap;html=1;container=1;collapsible=0;recursiveResize=0;outlineConnect=0;" vertex="1" parent="DllraJFMNf70iEvgbZT--1">
          <mxGeometry x="880" y="700" width="120" height="300" as="geometry"/>
        </mxCell>
        <mxCell id="EixzIUIeE48TNXtItAww-87" value="" style="html=1;points=[];perimeter=orthogonalPerimeter;" vertex="1" parent="EixzIUIeE48TNXtItAww-86">
          <mxGeometry x="55" y="100" width="10" height="10" as="geometry"/>
        </mxCell>
        <mxCell id="EixzIUIeE48TNXtItAww-88" value="new" style="html=1;verticalAlign=bottom;startArrow=oval;endArrow=block;startSize=8;" edge="1" target="EixzIUIeE48TNXtItAww-87" parent="EixzIUIeE48TNXtItAww-86">
          <mxGeometry relative="1" as="geometry">
            <mxPoint x="-5" y="100" as="sourcePoint"/>
          </mxGeometry>
        </mxCell>
        <mxCell id="EixzIUIeE48TNXtItAww-89" value="" style="html=1;points=[];perimeter=orthogonalPerimeter;" vertex="1" parent="EixzIUIeE48TNXtItAww-86">
          <mxGeometry x="55" y="220" width="15" height="80" as="geometry"/>
        </mxCell>
        <mxCell id="EixzIUIeE48TNXtItAww-90" value="toAnnotationBitmap" style="html=1;verticalAlign=bottom;endArrow=block;" edge="1" parent="EixzIUIeE48TNXtItAww-86">
          <mxGeometry x="0.125" y="10" width="80" relative="1" as="geometry">
            <mxPoint x="-25" y="220" as="sourcePoint"/>
            <mxPoint x="55" y="220" as="targetPoint"/>
            <mxPoint as="offset"/>
          </mxGeometry>
        </mxCell>
        <mxCell id="EixzIUIeE48TNXtItAww-91" value="" style="html=1;points=[];perimeter=orthogonalPerimeter;" vertex="1" parent="EixzIUIeE48TNXtItAww-86">
          <mxGeometry x="65" y="249.86000000000007" width="10" height="40" as="geometry"/>
        </mxCell>
        <mxCell id="EixzIUIeE48TNXtItAww-92" value="requestETA" style="edgeStyle=orthogonalEdgeStyle;html=1;align=left;spacingLeft=2;endArrow=block;rounded=0;entryX=1;entryY=0;" edge="1" target="EixzIUIeE48TNXtItAww-91" parent="EixzIUIeE48TNXtItAww-86">
          <mxGeometry relative="1" as="geometry">
            <mxPoint x="70" y="229.86000000000007" as="sourcePoint"/>
            <Array as="points">
              <mxPoint x="95" y="229.86000000000007"/>
            </Array>
          </mxGeometry>
        </mxCell>
        <mxCell id="EixzIUIeE48TNXtItAww-95" value="calculateRoute" style="html=1;verticalAlign=bottom;startArrow=oval;endArrow=block;startSize=8;" edge="1" target="EixzIUIeE48TNXtItAww-94" parent="DllraJFMNf70iEvgbZT--1" source="EixzIUIeE48TNXtItAww-91">
          <mxGeometry x="-0.1429" y="-20" relative="1" as="geometry">
            <mxPoint x="1065" y="970" as="sourcePoint"/>
            <mxPoint as="offset"/>
          </mxGeometry>
        </mxCell>
        <mxCell id="EixzIUIeE48TNXtItAww-99" value="QueuedRouteCalculate&lt;br&gt;Handler" style="shape=umlLifeline;perimeter=lifelinePerimeter;whiteSpace=wrap;html=1;container=1;collapsible=0;recursiveResize=0;outlineConnect=0;" vertex="1" parent="DllraJFMNf70iEvgbZT--1">
          <mxGeometry x="1270" y="700" width="120" height="410" as="geometry"/>
        </mxCell>
        <mxCell id="EixzIUIeE48TNXtItAww-100" value="" style="html=1;points=[];perimeter=orthogonalPerimeter;" vertex="1" parent="EixzIUIeE48TNXtItAww-99">
          <mxGeometry x="55" y="327" width="10" height="63" as="geometry"/>
        </mxCell>
        <mxCell id="EixzIUIeE48TNXtItAww-101" value="calculatingRoute" style="html=1;verticalAlign=bottom;startArrow=oval;endArrow=block;startSize=8;exitX=0.987;exitY=0.483;exitDx=0;exitDy=0;exitPerimeter=0;" edge="1" parent="DllraJFMNf70iEvgbZT--1">
          <mxGeometry relative="1" as="geometry">
            <mxPoint x="1144.6899999999998" y="1026.3200000000002" as="sourcePoint"/>
            <mxPoint x="1325" y="1027" as="targetPoint"/>
          </mxGeometry>
        </mxCell>
        <mxCell id="EixzIUIeE48TNXtItAww-103" value="doCalculateRoute" style="html=1;verticalAlign=bottom;startArrow=oval;endArrow=block;startSize=8;exitX=0.086;exitY=0.812;exitDx=0;exitDy=0;exitPerimeter=0;" edge="1" target="EixzIUIeE48TNXtItAww-102" parent="DllraJFMNf70iEvgbZT--1" source="EixzIUIeE48TNXtItAww-100">
          <mxGeometry relative="1" as="geometry">
            <mxPoint x="1320" y="1080" as="sourcePoint"/>
          </mxGeometry>
        </mxCell>
        <mxCell id="EixzIUIeE48TNXtItAww-104" value="AutoSdkNavigationService" style="shape=umlLifeline;perimeter=lifelinePerimeter;whiteSpace=wrap;html=1;container=1;collapsible=0;recursiveResize=0;outlineConnect=0;" vertex="1" parent="DllraJFMNf70iEvgbZT--1">
          <mxGeometry x="1430" y="700" width="140" height="580" as="geometry"/>
        </mxCell>
        <mxCell id="EixzIUIeE48TNXtItAww-107" value="" style="html=1;points=[];perimeter=orthogonalPerimeter;" vertex="1" parent="EixzIUIeE48TNXtItAww-104">
          <mxGeometry x="65" y="500" width="10" height="30" as="geometry"/>
        </mxCell>
        <mxCell id="EixzIUIeE48TNXtItAww-108" value="calculateRoute" style="html=1;verticalAlign=bottom;startArrow=oval;endArrow=block;startSize=8;exitX=0.949;exitY=0.562;exitDx=0;exitDy=0;exitPerimeter=0;" edge="1" target="EixzIUIeE48TNXtItAww-107" parent="DllraJFMNf70iEvgbZT--1" source="EixzIUIeE48TNXtItAww-105">
          <mxGeometry relative="1" as="geometry">
            <mxPoint x="1435" y="1200" as="sourcePoint"/>
          </mxGeometry>
        </mxCell>
        <mxCell id="EixzIUIeE48TNXtItAww-109" value="AutoSdk&lt;br&gt;NavigationService&lt;br&gt;Wrapper" style="shape=umlLifeline;perimeter=lifelinePerimeter;whiteSpace=wrap;html=1;container=1;collapsible=0;recursiveResize=0;outlineConnect=0;" vertex="1" parent="DllraJFMNf70iEvgbZT--1">
          <mxGeometry x="1590" y="700" width="100" height="620" as="geometry"/>
        </mxCell>
        <mxCell id="EixzIUIeE48TNXtItAww-111" value="" style="html=1;points=[];perimeter=orthogonalPerimeter;" vertex="1" parent="EixzIUIeE48TNXtItAww-109">
          <mxGeometry x="45" y="510" width="10" height="20" as="geometry"/>
        </mxCell>
        <mxCell id="EixzIUIeE48TNXtItAww-110" value="AutoSdk&lt;br&gt;NavigationServiceJNI" style="shape=umlLifeline;perimeter=lifelinePerimeter;whiteSpace=wrap;html=1;container=1;collapsible=0;recursiveResize=0;outlineConnect=0;" vertex="1" parent="DllraJFMNf70iEvgbZT--1">
          <mxGeometry x="1700" y="700" width="120" height="620" as="geometry"/>
        </mxCell>
        <mxCell id="EixzIUIeE48TNXtItAww-113" value="" style="html=1;points=[];perimeter=orthogonalPerimeter;" vertex="1" parent="EixzIUIeE48TNXtItAww-110">
          <mxGeometry x="55" y="518" width="10" height="22" as="geometry"/>
        </mxCell>
        <mxCell id="EixzIUIeE48TNXtItAww-112" value="calculateRoute" style="html=1;verticalAlign=bottom;startArrow=oval;endArrow=block;startSize=8;exitX=1.204;exitY=0.304;exitDx=0;exitDy=0;exitPerimeter=0;" edge="1" target="EixzIUIeE48TNXtItAww-111" parent="DllraJFMNf70iEvgbZT--1" source="EixzIUIeE48TNXtItAww-107">
          <mxGeometry relative="1" as="geometry">
            <mxPoint x="1575" y="1210" as="sourcePoint"/>
          </mxGeometry>
        </mxCell>
        <mxCell id="EixzIUIeE48TNXtItAww-114" value="startRouteCalculate" style="html=1;verticalAlign=bottom;startArrow=oval;endArrow=block;startSize=8;exitX=1.033;exitY=0.419;exitDx=0;exitDy=0;exitPerimeter=0;" edge="1" target="EixzIUIeE48TNXtItAww-113" parent="DllraJFMNf70iEvgbZT--1" source="EixzIUIeE48TNXtItAww-111">
          <mxGeometry relative="1" as="geometry">
            <mxPoint x="1695" y="1218" as="sourcePoint"/>
          </mxGeometry>
        </mxCell>
        <mxCell id="EixzIUIeE48TNXtItAww-115" value="ExecutorService" style="shape=umlLifeline;perimeter=lifelinePerimeter;whiteSpace=wrap;html=1;container=1;collapsible=0;recursiveResize=0;outlineConnect=0;" vertex="1" parent="DllraJFMNf70iEvgbZT--1">
          <mxGeometry x="950" y="1020" width="100" height="150" as="geometry"/>
        </mxCell>
        <mxCell id="EixzIUIeE48TNXtItAww-116" value="" style="html=1;points=[];perimeter=orthogonalPerimeter;" vertex="1" parent="EixzIUIeE48TNXtItAww-115">
          <mxGeometry x="45" y="70" width="10" height="30" as="geometry"/>
        </mxCell>
        <mxCell id="EixzIUIeE48TNXtItAww-117" value="execute" style="html=1;verticalAlign=bottom;startArrow=oval;endArrow=block;startSize=8;" edge="1" target="EixzIUIeE48TNXtItAww-116" parent="DllraJFMNf70iEvgbZT--1">
          <mxGeometry relative="1" as="geometry">
            <mxPoint x="1125" y="1090" as="sourcePoint"/>
          </mxGeometry>
        </mxCell>
        <mxCell id="EixzIUIeE48TNXtItAww-120" value="RainierRgc&lt;br&gt;Decorator" style="shape=umlLifeline;perimeter=lifelinePerimeter;whiteSpace=wrap;html=1;container=1;collapsible=0;recursiveResize=0;outlineConnect=0;" vertex="1" parent="DllraJFMNf70iEvgbZT--1">
          <mxGeometry x="415" y="1280" width="100" height="440" as="geometry"/>
        </mxCell>
        <mxCell id="EixzIUIeE48TNXtItAww-122" value="" style="html=1;points=[];perimeter=orthogonalPerimeter;" vertex="1" parent="EixzIUIeE48TNXtItAww-120">
          <mxGeometry x="45" y="130" width="10" height="30" as="geometry"/>
        </mxCell>
        <mxCell id="EixzIUIeE48TNXtItAww-123" value="onStart" style="html=1;verticalAlign=bottom;startArrow=oval;endArrow=block;startSize=8;" edge="1" target="EixzIUIeE48TNXtItAww-122" parent="EixzIUIeE48TNXtItAww-120">
          <mxGeometry relative="1" as="geometry">
            <mxPoint x="-105" y="130" as="sourcePoint"/>
          </mxGeometry>
        </mxCell>
        <mxCell id="EixzIUIeE48TNXtItAww-139" value="" style="html=1;points=[];perimeter=orthogonalPerimeter;" vertex="1" parent="EixzIUIeE48TNXtItAww-120">
          <mxGeometry x="45" y="320" width="10" height="80" as="geometry"/>
        </mxCell>
        <mxCell id="EixzIUIeE48TNXtItAww-121" value="NavigationSession&lt;br&gt;Manager" style="shape=umlLifeline;perimeter=lifelinePerimeter;whiteSpace=wrap;html=1;container=1;collapsible=0;recursiveResize=0;outlineConnect=0;" vertex="1" parent="DllraJFMNf70iEvgbZT--1">
          <mxGeometry x="570" y="1280" width="100" height="450" as="geometry"/>
        </mxCell>
        <mxCell id="EixzIUIeE48TNXtItAww-124" value="" style="html=1;points=[];perimeter=orthogonalPerimeter;" vertex="1" parent="EixzIUIeE48TNXtItAww-121">
          <mxGeometry x="45" y="150" width="10" height="80" as="geometry"/>
        </mxCell>
        <mxCell id="EixzIUIeE48TNXtItAww-125" value="addRoutePlanObserver" style="html=1;verticalAlign=bottom;startArrow=oval;endArrow=block;startSize=8;" edge="1" target="EixzIUIeE48TNXtItAww-124" parent="EixzIUIeE48TNXtItAww-121">
          <mxGeometry relative="1" as="geometry">
            <mxPoint x="-100" y="150" as="sourcePoint"/>
          </mxGeometry>
        </mxCell>
        <mxCell id="EixzIUIeE48TNXtItAww-137" value="" style="html=1;points=[];perimeter=orthogonalPerimeter;" vertex="1" parent="EixzIUIeE48TNXtItAww-121">
          <mxGeometry x="45" y="310" width="10" height="30" as="geometry"/>
        </mxCell>
        <mxCell id="EixzIUIeE48TNXtItAww-126" value="AutoSdkService&lt;br&gt;CallbackImpl" style="shape=umlLifeline;perimeter=lifelinePerimeter;whiteSpace=wrap;html=1;container=1;collapsible=0;recursiveResize=0;outlineConnect=0;" vertex="1" parent="DllraJFMNf70iEvgbZT--1">
          <mxGeometry x="750" y="1390" width="100" height="300" as="geometry"/>
        </mxCell>
        <mxCell id="EixzIUIeE48TNXtItAww-134" value="" style="html=1;points=[];perimeter=orthogonalPerimeter;" vertex="1" parent="EixzIUIeE48TNXtItAww-126">
          <mxGeometry x="45" y="180" width="10" height="80" as="geometry"/>
        </mxCell>
        <mxCell id="EixzIUIeE48TNXtItAww-133" value="autoSdkNavigationStatusCallback" style="html=1;verticalAlign=bottom;startArrow=oval;startFill=1;endArrow=block;startSize=8;" edge="1" parent="DllraJFMNf70iEvgbZT--1">
          <mxGeometry x="-0.2857" y="-10" width="60" relative="1" as="geometry">
            <mxPoint x="889" y="1570" as="sourcePoint"/>
            <mxPoint x="805" y="1570" as="targetPoint"/>
            <mxPoint as="offset"/>
          </mxGeometry>
        </mxCell>
        <mxCell id="EixzIUIeE48TNXtItAww-138" value="notifyRoutePlan" style="html=1;verticalAlign=bottom;startArrow=oval;endArrow=block;startSize=8;exitX=-0.033;exitY=0.267;exitDx=0;exitDy=0;exitPerimeter=0;" edge="1" target="EixzIUIeE48TNXtItAww-137" parent="DllraJFMNf70iEvgbZT--1" source="EixzIUIeE48TNXtItAww-134">
          <mxGeometry relative="1" as="geometry">
            <mxPoint x="555" y="1590" as="sourcePoint"/>
          </mxGeometry>
        </mxCell>
        <mxCell id="EixzIUIeE48TNXtItAww-140" value="notifyRoutePlan" style="html=1;verticalAlign=bottom;startArrow=oval;endArrow=block;startSize=8;exitX=0.1;exitY=0.378;exitDx=0;exitDy=0;exitPerimeter=0;" edge="1" target="EixzIUIeE48TNXtItAww-139" parent="DllraJFMNf70iEvgbZT--1" source="EixzIUIeE48TNXtItAww-137">
          <mxGeometry relative="1" as="geometry">
            <mxPoint x="400" y="1610" as="sourcePoint"/>
          </mxGeometry>
        </mxCell>
        <mxCell id="EixzIUIeE48TNXtItAww-144" value="search entity info" style="shape=umlFrame;whiteSpace=wrap;html=1;" vertex="1" parent="DllraJFMNf70iEvgbZT--1">
          <mxGeometry x="670" y="300" width="762" height="240" as="geometry"/>
        </mxCell>
        <mxCell id="EixzIUIeE48TNXtItAww-146" value="new &amp;amp; add&lt;br&gt;RGC" style="shape=umlFrame;whiteSpace=wrap;html=1;" vertex="1" parent="DllraJFMNf70iEvgbZT--1">
          <mxGeometry x="515" y="760" width="585" height="120" as="geometry"/>
        </mxCell>
        <mxCell id="EixzIUIeE48TNXtItAww-150" value="register &amp;amp; receive callback" style="shape=umlFrame;whiteSpace=wrap;html=1;width=100;height=40;" vertex="1" parent="DllraJFMNf70iEvgbZT--1">
          <mxGeometry x="140" y="1335" width="820" height="305" as="geometry"/>
        </mxCell>
      </root>
    </mxGraphModel>
  </diagram>
</mxfile>
